<svg xmlns="http://www.w3.org/2000/svg" xmlns:xlink="http://www.w3.org/1999/xlink" width="240.086" height="224.685" viewBox="0 0 240.086 224.685"><defs><style>.a{fill:#42c671;}.b{fill:#ff7a39;}.c{clip-path:url(#a);}.d,.k,.l{fill:#170d06;}.d{opacity:0.122;}.e{fill:#ffe19a;}.f,.g{fill:#ff8286;}.f{stroke:rgba(0,0,0,0);}.h{fill:#ffe8dd;}.i{clip-path:url(#b);}.j{fill:#e26223;}.l{stroke:#170d06;stroke-width:0.956px;}</style><clipPath id="a"><path class="a" d="M240.116,119.025c10.565,63.929-83.791,131.2-123.631,97.544C66.237,174.126-9.046,183.877,1.927,119.025,13.405,51.184,64.112,37.534,101.739,13.541,168.829-29.238,227.692,43.844,240.116,119.025Z"/></clipPath><clipPath id="b"><path class="b" d="M133.612,61.785c35.009,0,64.049,34.642,63.39,53.322-.73,20.684-28.38,53.322-63.39,53.322s-63.388-33.2-63.389-53.322C70.221,97.926,98.6,61.785,133.612,61.785Z"/></clipPath></defs><g transform="translate(-0.849 -0.859)"><path class="a" d="M240.116,119.025c10.565,63.929-83.791,131.2-123.631,97.544C66.237,174.126-9.046,183.877,1.927,119.025,13.405,51.184,64.112,37.534,101.739,13.541,168.829-29.238,227.692,43.844,240.116,119.025Z"/><g class="c"><path class="d" d="M195.789,53.764l60.845,76.718s-13.766,40.637-32.627,61.727c-22.2,24.828-51.051,34.258-52.909,34.391-3.437.244-79.363-74.954-79.363-74.954Z"/><g transform="matrix(0.997, -0.08, 0.08, 0.997, 85.703, 157.115)"><path class="e" d="M80.975,26.381c-6.234,9.745-33.142,23.113-11.41,17.177s40.2-28.16,46.578-37.021,9.741-5.92,7.459,2.126c-2.251,9.982-10.188,24.48-19.172,36.445a208.47,208.47,0,0,1-20.267,22.95S61.684,76.5,43.108,74.348,10.02,52.067,14.265,53.5s10.56-10.151,33.47-20.416S75.242,19.816,75.242,19.816"/><path class="f" d="M75.8,19.22c-1.437,1.248,3.273,9.259,5.088,8.267,1.74-.951,8.612-4.619,6.283-10.209C85.792,13.965,75.678,19.328,75.8,19.22Z" transform="translate(-4.228 2.669)"/><path class="g" d="M121.728,1.571s-5.136,7.12-4.712,9.424,2.974,3.265,3.927,2.356c0,0,4.786-7.976,4.712-10.995S121.728,1.571,121.728,1.571Z" transform="translate(0 0)"/></g></g><path class="b" d="M162.205,70.14s29.758-22.051,33.366-16.3c3.794,6.046-2.092,32.613-12.485,43.582C169.123,90.8,160.672,78.782,162.205,70.14Z"/><path class="h" d="M162.154,77.17s22.092-16.37,24.771-12.1c2.816,4.488-1.553,24.212-9.269,32.355C167.29,92.511,161.016,83.586,162.154,77.17Z"/><path class="b" d="M106.8,68.189s-29.758-22.051-33.366-16.3C69.642,57.935,75.528,84.5,85.921,95.47,99.884,88.852,108.335,76.831,106.8,68.189Z"/><path class="h" d="M106.854,75.4S84.959,59.177,82.3,63.408c-2.791,4.448,1.539,24,9.186,32.065C101.764,90.6,107.982,81.759,106.854,75.4Z"/><path class="b" d="M133.612,61.785c35.009,0,64.049,34.642,63.39,53.322-.73,20.684-28.38,53.322-63.39,53.322s-63.388-33.2-63.389-53.322C70.221,97.926,98.6,61.785,133.612,61.785Z"/><g class="i"><rect class="j" width="9.955" height="45.211" rx="4.877" transform="translate(129.122 49.4)"/><rect class="j" width="9.955" height="29.797" rx="4.877" transform="translate(115.142 51.723)"/><rect class="j" width="9.955" height="29.883" rx="4.877" transform="translate(144.097 50.92)"/><ellipse class="h" cx="43.356" cy="38.298" rx="43.356" ry="38.298" transform="translate(89.677 134.171)"/></g><ellipse class="k" cx="12.689" cy="9.276" rx="12.689" ry="9.276" transform="translate(120.544 127.783)"/><line class="l" y1="6.158" x2="34.301" transform="translate(150.284 133.951)"/><line class="l" x2="33.803" y2="5.059" transform="translate(148.84 144.364)"/><line class="l" x1="34.301" y1="6.158" transform="translate(82.534 135.902)"/><line class="l" x1="33.803" y2="5.059" transform="translate(84.475 146.315)"/><ellipse class="k" cx="4.705" cy="4.695" rx="4.705" ry="4.695" transform="translate(110.81 111.575)"/><ellipse class="k" cx="4.705" cy="4.695" rx="4.705" ry="4.695" transform="translate(147.864 111.575)"/></g></svg>