<svg xmlns="http://www.w3.org/2000/svg" width="235.298" height="80.37" viewBox="0 0 235.298 80.37"><defs><style>.a{fill:#fff;}</style></defs><g transform="translate(-99.401 -30.63)"><path class="a" d="M12.2-3.466a5.554,5.554,0,0,1-4.02-1.641A5.5,5.5,0,0,1,6.46-9.085v-.246a5.518,5.518,0,0,1,1.723-4,5.554,5.554,0,0,1,4.02-1.641,5.6,5.6,0,0,1,4.081,1.682,5.6,5.6,0,0,1,1.682,4.081,5.533,5.533,0,0,1-1.682,4.061A5.6,5.6,0,0,1,12.2-3.466Zm.39-14.95a8.909,8.909,0,0,0-6.132,2.01v-1.7a.236.236,0,0,0-.267-.267H3.22a.236.236,0,0,0-.267.267V10.726a.236.236,0,0,0,.267.267H6.193a.236.236,0,0,0,.267-.267V-2.03A8.909,8.909,0,0,0,12.2,0a8.858,8.858,0,0,0,6.706-2.892,9.24,9.24,0,0,0,1.948-3.138,8.922,8.922,0,0,0,.533-3.794,8.885,8.885,0,0,0-2.769-5.968A8.894,8.894,0,0,0,12.592-18.416ZM27.46-10.172a5.52,5.52,0,0,1,1.8-3.445,5.14,5.14,0,0,1,3.568-1.354A5.461,5.461,0,0,1,36.217-13.9a4.89,4.89,0,0,1,1.866,2.81Zm5.435-8.244a8.48,8.48,0,0,0-6.357,2.646,9.028,9.028,0,0,0-2.6,6.563,8.822,8.822,0,0,0,2.707,6.5A8.865,8.865,0,0,0,33.141,0a9.06,9.06,0,0,0,4.491-1.169A9,9,0,0,0,41-4.368a.231.231,0,0,0-.1-.369L38.37-6.214a.25.25,0,0,0-.369.1,5.624,5.624,0,0,1-2.092,1.948,5.741,5.741,0,0,1-2.769.7,5.646,5.646,0,0,1-3.1-.9,5.67,5.67,0,0,1-2.092-2.379L41.487-7.916a.239.239,0,0,0,.246-.267V-9.352a8.818,8.818,0,0,0-2.584-6.357A8.429,8.429,0,0,0,32.895-18.416ZM52.11-3.568a1.693,1.693,0,0,1-.779-1.682v-9.782h2.81a.236.236,0,0,0,.267-.267v-2.912a.236.236,0,0,0-.267-.267h-2.81v-3.876a.236.236,0,0,0-.267-.267H48.132a.236.236,0,0,0-.267.267l.021,3.876h-2.81a.236.236,0,0,0-.267.267V-15.3a.236.236,0,0,0,.267.267h2.81V-5.25a5.872,5.872,0,0,0,.7,2.871A4.516,4.516,0,0,0,50.552-.492,4.572,4.572,0,0,0,52.623,0a5.3,5.3,0,0,0,3.056-1q.246-.144.062-.369L54-3.712a.234.234,0,0,0-.349-.082A1.528,1.528,0,0,1,52.11-3.568Zm11.136.1L73.541-15.278a.3.3,0,0,0,.062-.185V-18.19a.236.236,0,0,0-.267-.267H59a.236.236,0,0,0-.267.267v2.933a.236.236,0,0,0,.267.267h9.7L58.488-3.281a.255.255,0,0,0-.082.185v2.83A.236.236,0,0,0,58.673,0H73.5a.236.236,0,0,0,.267-.267V-3.2a.236.236,0,0,0-.267-.267Zm20.221,0a3.108,3.108,0,0,1-2.379-.718,2.407,2.407,0,0,1-.431-1.6,1.718,1.718,0,0,1,.554-1.354q1.292-1.148,5-1.148.841,0,1.764.062A5.416,5.416,0,0,1,86.01-4.245a4.357,4.357,0,0,1-1.374.636A4.8,4.8,0,0,1,83.467-3.466Zm8.019-5.5q.021-.349.021-.677h0a17.32,17.32,0,0,0-.246-3.691,6.452,6.452,0,0,0-1.62-3.322,6.68,6.68,0,0,0-5-1.784,9.705,9.705,0,0,0-4.2.9,9.081,9.081,0,0,0-1.292.738,3.94,3.94,0,0,0-.451.349,2.868,2.868,0,0,0-.308.267.236.236,0,0,0,0,.39L80.555-13.8a.226.226,0,0,0,.349,0,4.694,4.694,0,0,1,.472-.328,5.182,5.182,0,0,1,.779-.39,6.369,6.369,0,0,1,2.481-.472,3.392,3.392,0,0,1,2.522.759A4.112,4.112,0,0,1,88-11.689q-6.419-.41-9.064,1.948a5.037,5.037,0,0,0-1.743,3.958,5.5,5.5,0,0,0,1.661,4.245A6.588,6.588,0,0,0,83.467-.021,7.506,7.506,0,0,0,88.43-1.764q.082.779.185,1.538A.246.246,0,0,0,88.881,0h2.953q.308,0,.267-.308Q92-1,91.916-1.723q-.123-.964-.205-1.887-.246-2.5-.246-4.286Q91.465-8.244,91.485-8.962Zm15.012,5.5a5.554,5.554,0,0,1-4.02-1.641,5.5,5.5,0,0,1-1.723-3.979v-.246a5.518,5.518,0,0,1,1.723-4,5.554,5.554,0,0,1,4.02-1.641,5.6,5.6,0,0,1,4.081,1.682,5.6,5.6,0,0,1,1.682,4.081,5.533,5.533,0,0,1-1.682,4.061A5.6,5.6,0,0,1,106.5-3.466Zm.39-14.95a8.909,8.909,0,0,0-6.132,2.01v-1.7a.236.236,0,0,0-.267-.267H97.515a.236.236,0,0,0-.267.267V10.726a.236.236,0,0,0,.267.267h2.974a.236.236,0,0,0,.267-.267V-2.03A8.909,8.909,0,0,0,106.5,0,8.858,8.858,0,0,0,113.2-2.892a9.24,9.24,0,0,0,1.948-3.138,8.922,8.922,0,0,0,.533-3.794,8.885,8.885,0,0,0-2.769-5.968A8.894,8.894,0,0,0,106.887-18.416Zm22.6,14.95a5.554,5.554,0,0,1-4.02-1.641,5.5,5.5,0,0,1-1.723-3.979v-.246a5.518,5.518,0,0,1,1.723-4,5.554,5.554,0,0,1,4.02-1.641,5.6,5.6,0,0,1,4.081,1.682,5.6,5.6,0,0,1,1.682,4.081,5.533,5.533,0,0,1-1.682,4.061A5.6,5.6,0,0,1,129.486-3.466Zm.39-14.95a8.909,8.909,0,0,0-6.132,2.01v-1.7a.236.236,0,0,0-.267-.267H120.5a.236.236,0,0,0-.267.267V10.726a.236.236,0,0,0,.267.267h2.974a.236.236,0,0,0,.267-.267V-2.03A8.909,8.909,0,0,0,129.486,0a8.858,8.858,0,0,0,6.706-2.892,9.24,9.24,0,0,0,1.948-3.138,8.922,8.922,0,0,0,.533-3.794,8.885,8.885,0,0,0-2.769-5.968A8.894,8.894,0,0,0,129.876-18.416Z" transform="translate(196 77)"/><g transform="translate(-42 -116.455)"><g transform="translate(141.401 147.085)"><path class="a" d="M609.467,476.822a2.358,2.358,0,0,1,.537,1.512,2.385,2.385,0,0,1-.717,1.736,2.1,2.1,0,0,1-1.467.6,2.054,2.054,0,0,1-1.579-.739,2.413,2.413,0,0,1,.19-3.248,2.1,2.1,0,0,1,1.467-.6A2.032,2.032,0,0,1,609.467,476.822Z" transform="translate(-559.053 -443.028)"/><path class="a" d="M222.252,199.3l-9.34-47.449a11.029,11.029,0,0,0-2.049-4.569.494.494,0,0,0-.56-.168c-.717.269-1.456.526-2.206.806l-.2.067c-.482.179-.952.347-1.445.515-2.576.918-5.319,1.881-8.1,2.867-.84.3-1.691.6-2.531.918l-.1.034c-1.568.571-3.124,1.153-4.647,1.747a84.814,84.814,0,0,0-12.039,5.532l-.5.3a13.974,13.974,0,0,0-4.793,4.244,4.844,4.844,0,0,0-.291.593,3.505,3.505,0,0,0-.168.437c-.034.157-.067.3-.09.459a.309.309,0,0,0-.011.1,2.059,2.059,0,0,0-.034.37c-.1,10.874-9.407,17.336-11.983,15.9a1.3,1.3,0,0,1-.6-1.243,3.146,3.146,0,0,1,.023-.325,3.831,3.831,0,0,1,.09-.56c.034-.157.078-.3.123-.459s.112-.325.168-.493a14.755,14.755,0,0,1,.694-1.6,5.656,5.656,0,0,1,.269-.515.377.377,0,0,1,.067-.134c.078-.134.146-.28.224-.414.549-.985,1.142-1.937,1.657-2.71.112-.179.224-.347.325-.493.034-.045.056-.09.078-.123a.508.508,0,0,0-.56-.773,8.334,8.334,0,0,0-1.3.538l-.37.2a10.705,10.705,0,0,0-3.516,3.393c-.146.2-.269.4-.4.6a22.509,22.509,0,0,0-1.96,4.233c-.09.257-.179.515-.258.761-.123.381-.246.761-.358,1.142s-.224.761-.325,1.153c-.146.549-.291,1.086-.414,1.635-.078.325-.157.649-.224.963-.224.974-.414,1.915-.6,2.811-.067.258-.123.526-.168.784-.067.28-.123.549-.179.818-.034.134-.067.269-.09.392-.067.258-.123.5-.179.739-.034.123-.067.235-.09.347a12.353,12.353,0,0,1-.649,1.949,3.176,3.176,0,0,1-.224.437,2.091,2.091,0,0,1-.5.593c-2.912,2.128-3.539-4.323-.56-16.518q.2-.84.437-1.646a1.5,1.5,0,0,1,.056-.213c.067-.28.146-.549.235-.817.19-.627.381-1.243.582-1.848.224-.661.448-1.321.694-1.96.19-.5.392-1.008.594-1.5.034-.078.056-.146.09-.213.213-.515.437-1.019.661-1.512a52.526,52.526,0,0,1,3.046-5.745c.426-.672.851-1.333,1.288-1.982.874-1.288,1.792-2.509,2.733-3.673q.521-.655,1.075-1.277c.112-.146.235-.28.358-.414.313-.358.627-.706.952-1.053.067-.078.134-.146.2-.213q.622-.672,1.277-1.31.655-.655,1.31-1.277c.985-.918,1.982-1.781,2.979-2.6a.511.511,0,0,0-.426-.9l-19.06,3.763a11.208,11.208,0,0,0-8.813,13.125l9.34,47.449a11.208,11.208,0,0,0,13.125,8.8l4.592-.9.157-.034,13.45-2.654,5.779-1.142V202.46A9.482,9.482,0,0,0,178.6,193a10.393,10.393,0,0,0-10.359,10.359V208.1l-4.267-2.945c-6.07-6.428-9.754-9.116-.2-20l2.285-2.587c12.05-13.73,28.523-13.024,41.144-.392l9.485,4.188c2.811,2.811-2.531,15.3-5.219,18.355L195.9,215.159c-.269.313-.549.6-.818.873l18.366-3.617A11.2,11.2,0,0,0,222.252,199.3Zm-5.409-16.059a2.143,2.143,0,0,1-1.478.6,2.032,2.032,0,0,1-1.568-.739,2.439,2.439,0,0,1,.179-3.259,2.137,2.137,0,0,1,1.467-.6,2.049,2.049,0,0,1,1.579.75,2.358,2.358,0,0,1,.538,1.512A2.386,2.386,0,0,1,216.844,183.243Z" transform="translate(-141.401 -147.085)"/><path class="a" d="M610,478.334a2.385,2.385,0,0,1-.717,1.736,2.1,2.1,0,0,1-1.467.6,2.054,2.054,0,0,1-1.579-.739,2.413,2.413,0,0,1,.19-3.248,2.1,2.1,0,0,1,1.467-.6,2.032,2.032,0,0,1,1.568.739A2.358,2.358,0,0,1,610,478.334Z" transform="translate(-559.053 -443.028)"/><path class="a" d="M428.353,613.5v16.081a8.348,8.348,0,0,1-.067,1.064,8.932,8.932,0,0,1-8.847,7.85h-1.982a8.933,8.933,0,0,1-8.489-6.215,8.619,8.619,0,0,1-.426-2.7V614.4A10.393,10.393,0,0,1,418.9,604.039a9.482,9.482,0,0,1,9.452,9.463Z" transform="translate(-381.702 -558.127)"/></g></g></g></svg>